<svg width="21" height="26" viewBox="0 0 21 26" fill="none" xmlns="http://www.w3.org/2000/svg">
<path d="M0 0.611084H8.84496C15.558 0.611084 21 6.05308 21 12.7661C21 19.7988 15.2989 25.5 8.26614 25.5H0V0.611084Z" fill="#FB652B"/>
<path d="M9.90863 7.89587C9.90863 7.67151 9.72675 7.48962 9.50238 7.48962C9.27802 7.48962 9.09613 7.67151 9.09613 7.89587V9.13018C8.50804 9.17547 7.94873 9.31747 7.43334 9.52748L6.92248 8.81466C6.79178 8.63229 6.53799 8.59041 6.35563 8.7211C6.17326 8.8518 6.13137 9.10559 6.26207 9.28796L6.69394 9.89056C6.36488 10.0812 6.06132 10.2984 5.78853 10.5321C4.86213 11.3259 4.21875 12.3764 4.21875 13.3125C4.21875 14.2487 4.86213 15.2992 5.78853 16.093C6.73092 16.9004 8.04052 17.5105 9.5 17.5105C10.9594 17.5105 12.269 16.9009 13.2114 16.0936C14.1379 15.2999 14.7812 14.2494 14.7812 13.3125C14.7812 12.3757 14.1379 11.3251 13.2114 10.5315C13.0028 10.3528 12.7761 10.1837 12.5338 10.0288L12.9786 9.40818C13.1093 9.22581 13.0675 8.97202 12.8851 8.84132C12.7027 8.71062 12.4489 8.7525 12.3182 8.93486L11.816 9.63561C11.2348 9.36699 10.5912 9.18368 9.90863 9.13054V7.89587ZM9.5 11.2813C10.6218 11.2813 11.5313 12.1907 11.5313 13.3125C11.5313 14.4344 10.6218 15.3438 9.5 15.3438C8.37817 15.3438 7.46875 14.4344 7.46875 13.3125C7.46875 12.1907 8.37817 11.2813 9.5 11.2813Z" fill="white"/>
</svg>
